<svg xmlns="http://www.w3.org/2000/svg" version="1.1" xmlns:xlink="http://www.w3.org/1999/xlink" xmlns:svgjs="http://svgjs.com/svgjs" width="1366" height="768" preserveAspectRatio="none" viewBox="0 0 1366 768"><g mask="url(&quot;#SvgjsMask1072&quot;)" fill="none"><rect width="1366" height="768" x="0" y="0" fill="#0e2a47"></rect><path d="M0,463.486C89.498,455.681,181.127,447.982,255.822,398.067C329.834,348.608,363.238,262.626,412.009,188.158C470.365,99.055,573.19,24.485,570.222,-81.986C567.243,-188.818,469.136,-265.138,397.168,-344.148C326.866,-421.329,257.931,-507.938,157.21,-535.409C57.177,-562.692,-51.438,-537.739,-144.424,-491.864C-229.097,-450.09,-282.137,-368.805,-336.69,-291.743C-386.394,-221.531,-427.706,-148.091,-447.114,-64.285C-467.899,25.466,-479.803,118.6,-452.064,206.451C-422.272,300.804,-372.215,396.432,-286.201,445.338C-201.384,493.563,-97.199,471.963,0,463.486" fill="#0b2239"></path><path d="M1366 1193.899C1463.54 1207.647 1561.354 1248.825 1654.599 1217.069 1757.654 1181.972 1849.753 1108.433 1900.21 1011.965 1951.758 913.4110000000001 1966.094 792.496 1932.046 686.615 1899.83 586.429 1794.299 536.028 1722.441 459.142 1653.939 385.847 1612.487 282.88 1519.505 245.21000000000004 1423.431 206.288 1305.569 203.22299999999996 1214.941 253.53999999999996 1127.7350000000001 301.957 1106.305 413.92 1058.225 501.312 1020.631 569.644 987.563 635.904 963.725 710.162 935.159 799.148 872.306 890.976 905.033 978.517 937.751 1066.034 1040.694 1102.9189999999999 1125.343 1142.47 1201.1970000000001 1177.912 1283.094 1182.213 1366 1193.899" fill="#113255"></path></g><defs><mask id="SvgjsMask1072"><rect width="1366" height="768" fill="#ffffff"></rect></mask></defs></svg>